<svg width="201" height="220" viewBox="0 0 201 220" fill="none" xmlns="http://www.w3.org/2000/svg">
<rect width="201" height="220" rx="3" fill="#5F0080"/>
<g clip-path="url(#clip0_91_2)">
<path d="M121.5 83.965C122.526 83.408 123.966 83.247 124.856 84.072C125.746 84.897 125.532 86.12 124.856 88.045C124.856 88.045 123.351 92.111 121.801 96.307L121.403 97.387C119.989 101.217 118.641 104.874 118.476 105.35C116.978 109.595 120.443 109.472 122.5 105.198C123.659 102.804 125.144 98.841 125.144 98.841C125.668 97.278 125.826 96.337 125.503 96.013C125.396 95.9 125.548 95.761 125.683 95.69C127.952 94.541 130.313 95.618 129.019 99L128.965 99.138C128.578 100.116 126.285 105.871 126.285 105.871C125.609 107.531 125.69 109.107 126.703 109.107C127.389 109.103 128.163 108.722 129.007 108.019C130.825 106.515 132.229 103.707 132.734 102.565C132.964 102.057 133.821 100.145 134.5 98.204C134.736 97.539 134.869 96.844 134.895 96.139C134.878 96.0519 134.887 95.9615 134.922 95.8796C134.956 95.7978 135.015 95.7282 135.089 95.68C135.603 95.4061 136.177 95.262 136.759 95.26C137.042 95.2547 137.321 95.3158 137.576 95.4382C137.83 95.5607 138.052 95.7411 138.224 95.965C138.667 96.563 138.79 97.544 138.327 98.773C138.207 99.093 134.552 108.731 134.552 108.731V108.757C136.593 107.534 138.422 107.444 139.505 107.903L139.502 107.89C140.997 108.537 141.492 110.33 140.44 111.449C140.337 111.559 140.078 111.533 140.078 111.359C139.984 110.106 137.561 107.864 133.969 110.284L133.824 110.669L132.756 113.477C130.136 120.495 127.353 125.613 123.341 124.477C120.653 123.717 120.964 119.87 123.856 116.687C125.859 114.551 128.029 112.579 130.346 110.789C130.414 110.601 130.476 110.439 130.534 110.278C130.812 109.498 131.025 108.844 131.326 108.013L131.485 107.495C131.307 107.695 130.987 108.068 130.773 108.307C130.061 109.107 128.279 111.064 125.444 110.514L125.21 110.462C123.16 109.954 122.602 108.476 122.555 107.185C120.413 109.841 118.204 110.611 116.748 110.575C114.8 110.527 113.37 109.061 114.321 106.285C115.379 103.179 119.821 90.953 121.116 87.285C121.601 85.705 121.782 84.705 121.3 84.311C121.177 84.208 121.352 84.046 121.5 83.965ZM129.864 112.743C128.761 113.623 124.338 117.273 123.112 120.184C122.607 121.381 122.736 122.333 123.6 122.417C125.56 122.611 127.612 118.599 129.828 112.905L129.864 112.743ZM75.0282 88.352C74.9412 88.684 73.7092 92.212 72.3272 96.101L72.1182 96.687L71.9082 97.276L71.6932 97.88C76.3842 96.757 84.7572 91.31 85.7282 87.795C85.8482 87.634 86.0182 87.575 86.2942 87.76C86.7892 88.09 86.9802 88.915 86.7892 89.678C86.0252 92.716 80.3732 97.019 75.4102 99.232C76.0222 100.869 78.0922 105.499 79.6162 108.343C81.2792 111.462 83.0362 112.918 85.7632 113.08C87.2232 113.165 88.7772 112.633 89.6562 111.86L89.8042 111.72L89.7912 111.75C89.9852 111.546 90.3022 111.827 90.1572 112.073C89.6012 112.902 88.8616 113.592 87.9959 114.089C87.1302 114.586 86.1616 114.878 85.1652 114.94C78.8202 115.367 76.3912 111.07 71.8612 100.446C71.4952 100.572 71.0522 100.734 70.6062 100.896C70.5312 101.083 68.5362 106.538 68.4762 106.719C67.5322 109.589 67.4712 111.161 68.1182 111.614C68.2632 111.704 68.1922 111.947 67.9402 112.028C65.4132 112.824 63.0872 111.332 64.3812 107.586C65.5422 104.27 70.0712 91.406 71.2952 87.96C71.7222 86.666 71.4922 85.835 70.8032 85.654C67.5062 84.78 59.8772 91.749 60.9712 98.184C61.1612 99.304 61.9512 99.931 62.3492 99.847C62.3709 99.8427 62.3933 99.8438 62.4145 99.8503C62.4356 99.8568 62.4548 99.8685 62.4703 99.8843C62.4858 99.9001 62.4971 99.9195 62.5032 99.9407C62.5093 99.962 62.51 99.9844 62.5052 100.006C62.3944 100.386 62.1389 100.706 61.7938 100.899C61.4488 101.092 61.0417 101.142 60.6602 101.038C59.4902 100.782 59.1072 99.527 59.0432 98.88C58.3992 92.22 65.1482 84.23 71.3892 83.58C73.7672 83.33 75.9982 84.54 75.0282 88.352ZM99.0682 98.265L99.0082 98.472L96.1782 106.632C95.8742 107.482 96.0782 108.369 96.6792 108.534C98.4362 109.016 100.707 106.389 101.81 103.801C102.341 102.544 102.833 101.272 103.286 99.986C103.868 98.343 104.392 96.803 104.069 96.078C103.994 95.91 104.114 95.822 104.292 95.728C104.797 95.473 106.518 94.903 107.433 95.796C108.128 96.47 108.042 97.567 107.403 99.233L107.307 99.475L107.527 99.202C110.23 95.902 112.319 94.91 114.09 95.605L114.237 95.667C116.618 96.741 115.383 100.882 112.121 101.147C111.921 101.164 111.765 101.021 111.963 100.74C112.358 100.135 112.319 98.831 111.167 98.718C110.015 98.605 108.337 99.925 107.129 101.562C106.045 103.012 104.929 105.473 103.807 108.835C103.535 109.653 103.664 109.847 103.697 109.902C103.705 109.916 103.709 109.933 103.709 109.949C103.709 109.965 103.705 109.982 103.697 109.996C103.554 110.268 102.732 110.592 101.937 110.592C100.312 110.585 99.6462 109.647 99.9702 108.155C98.1222 109.919 96.2592 110.769 94.6152 110.621C94.2535 110.59 93.9029 110.481 93.5872 110.301C93.2715 110.122 92.9982 109.877 92.7859 109.582C92.5737 109.288 92.4275 108.951 92.3573 108.594C92.2871 108.238 92.2946 107.871 92.3792 107.518C90.9532 109.327 88.8372 110.786 86.6822 110.585C84.5272 110.385 83.1822 108.919 83.8802 105.797C84.4702 103.199 85.4722 100.507 86.0872 98.77C86.6012 97.314 86.7052 96.363 86.3812 96.02C86.2782 95.906 86.4362 95.77 86.5752 95.696C88.2652 94.81 90.9692 95.382 90.2052 97.786C89.4032 100.313 87.9502 104.276 87.6552 105.186C86.9182 107.473 87.3652 108.709 88.4102 108.766C89.4552 108.826 90.8402 107.806 91.8302 106.263C93.5902 103.739 94.4112 100.578 95.2072 98.381C95.4112 97.821 95.7342 96.515 95.3922 96.029C95.3012 95.906 95.4592 95.771 95.6672 95.657C97.2042 94.808 99.9512 95.017 99.0682 98.265Z" fill="white"/>
</g>
<defs>
<clipPath id="clip0_91_2">
<rect width="82" height="42" fill="white" transform="translate(59 83)"/>
</clipPath>
</defs>
</svg>
