<svg width="68" height="68" viewBox="0 0 68 68" fill="none" xmlns="http://www.w3.org/2000/svg">
<g filter="url(#filter0_d_82_15)">
<circle cx="34" cy="30" r="30" transform="rotate(-180 34 30)" fill="white"/>
<circle cx="34" cy="30" r="29.5" transform="rotate(-180 34 30)" stroke="white"/>
</g>
<path d="M26.9392 28.912C26.3535 29.4978 26.3535 30.4475 26.9393 31.0333L36.4856 40.5789C37.0714 41.1647 38.0211 41.1646 38.6069 40.5788C39.1927 39.993 39.1926 39.0433 38.6068 38.4575L30.1212 29.9725L38.6062 21.4869C39.192 20.9011 39.1919 19.9514 38.6061 19.3656C38.0203 18.7799 37.0706 18.7799 36.4848 19.3657L26.9392 28.912ZM29.9998 28.4725L27.9999 28.4726L28 31.4726L29.9999 31.4725L29.9998 28.4725Z" fill="#5F0080"/>
<defs>
<filter id="filter0_d_82_15" x="0" y="0" width="68" height="68" filterUnits="userSpaceOnUse" color-interpolation-filters="sRGB">
<feFlood flood-opacity="0" result="BackgroundImageFix"/>
<feColorMatrix in="SourceAlpha" type="matrix" values="0 0 0 0 0 0 0 0 0 0 0 0 0 0 0 0 0 0 127 0" result="hardAlpha"/>
<feOffset dy="4"/>
<feGaussianBlur stdDeviation="2"/>
<feComposite in2="hardAlpha" operator="out"/>
<feColorMatrix type="matrix" values="0 0 0 0 0 0 0 0 0 0 0 0 0 0 0 0 0 0 0.25 0"/>
<feBlend mode="normal" in2="BackgroundImageFix" result="effect1_dropShadow_82_15"/>
<feBlend mode="normal" in="SourceGraphic" in2="effect1_dropShadow_82_15" result="shape"/>
</filter>
</defs>
</svg>
