<svg width="68" height="68" viewBox="0 0 68 68" fill="none" xmlns="http://www.w3.org/2000/svg">
<g filter="url(#filter0_d_82_8)">
<circle cx="34" cy="30" r="30" fill="white"/>
<circle cx="34" cy="30" r="29.5" stroke="white"/>
</g>
<path d="M41.0608 31.088C41.6465 30.5022 41.6465 29.5525 41.0607 28.9667L31.5144 19.4211C30.9286 18.8353 29.9789 18.8354 29.3931 19.4212C28.8073 20.007 28.8074 20.9567 29.3932 21.5425L37.8788 30.0275L29.3938 38.5131C28.808 39.0989 28.8081 40.0486 29.3939 40.6344C29.9797 41.2201 30.9294 41.2201 31.5152 40.6343L41.0608 31.088ZM38.0002 31.5275L40.0001 31.5274L40 28.5274L38.0001 28.5275L38.0002 31.5275Z" fill="black"/>
<defs>
<filter id="filter0_d_82_8" x="0" y="0" width="68" height="68" filterUnits="userSpaceOnUse" color-interpolation-filters="sRGB">
<feFlood flood-opacity="0" result="BackgroundImageFix"/>
<feColorMatrix in="SourceAlpha" type="matrix" values="0 0 0 0 0 0 0 0 0 0 0 0 0 0 0 0 0 0 127 0" result="hardAlpha"/>
<feOffset dy="4"/>
<feGaussianBlur stdDeviation="2"/>
<feComposite in2="hardAlpha" operator="out"/>
<feColorMatrix type="matrix" values="0 0 0 0 0 0 0 0 0 0 0 0 0 0 0 0 0 0 0.25 0"/>
<feBlend mode="normal" in2="BackgroundImageFix" result="effect1_dropShadow_82_8"/>
<feBlend mode="normal" in="SourceGraphic" in2="effect1_dropShadow_82_8" result="shape"/>
</filter>
</defs>
</svg>
